<?xml version="1.0" encoding="utf-8"?>
<!-- Generator: Adobe Illustrator 23.1.1, SVG Export Plug-In . SVG Version: 6.00 Build 0)  -->
<svg version="1.1" id="Layer_1" xmlns="http://www.w3.org/2000/svg" xmlns:xlink="http://www.w3.org/1999/xlink" x="0px" y="0px"
   viewBox="0 0 512 512" style="enable-background:new 0 0 512 512;" xml:space="preserve">
<style type="text/css">
  .st0{fill:#3BBCA3;}
  .st1{opacity:0.5;fill:#3BBCA3;}
</style>
<path class="st0" d="M512,33.8V15c0-8.3-6.7-15-15-15h-18.8c-46.3,0-83.8,24.7-104.7,56.9c-5.5-12-13.1-23.1-22.8-32.7
  c-10.5-10.5-19.8-19.8-19.8-19.8c-5.9-5.9-15.4-5.9-21.2,0l-19.8,19.8c-21.1,21.1-32.8,49.3-32.8,79.2c0,7.7,0.8,15.3,2.3,22.7
  c-1.6-1.9-3.3-3.7-5.1-5.4l-19.8-19.8c-5.9-5.9-15.4-5.9-21.2,0l-19.8,19.8c-21.1,21.1-32.8,49.3-32.8,79.2c0,7.7,0.8,15.3,2.3,22.7
  c-1.6-1.9-3.3-3.7-5.1-5.4l-19.8-19.8c-2.8-2.8-6.6-4.4-10.6-4.4s-7.8,1.6-10.6,4.4L97.1,217c-43.3,43.3-44.2,114.2,0,158.3l9.2,9.2
  L4.4,486.4c-5.9,5.9-5.9,15.4,0,21.2c5.9,5.9,15.4,5.9,21.2,0l101.9-101.9l9.2,9.2c21.2,21.1,49.3,32.8,79.2,32.8
  c12.4,0,48.3-1.9,79.2-32.8l19.8-19.8c2.8-2.8,4.4-6.6,4.4-10.6c0-4-1.6-7.8-4.4-10.6L295,354.1c-1.8-1.8-3.6-3.4-5.4-5.1
  c7.4,1.5,15,2.3,22.6,2.3h0c29.9,0,58-11.6,79.2-32.8l19.8-19.8c5.9-5.9,5.9-15.4,0-21.2l-19.8-19.8c-1.8-1.8-3.6-3.4-5.4-5.1
  c7.4,1.5,15,2.3,22.6,2.3h0c29.9,0,58-11.6,79.2-32.8l19.8-19.8c5.9-5.9,5.9-15.4,0-21.2l-19.8-19.8c-9.6-9.6-20.7-17.3-32.8-22.8
  C487.3,117.6,512,80.2,512,33.8L512,33.8z M311.1,45.4l9.2-9.2c2.8,2.8,5.9,5.9,9.2,9.2c32,32,32.1,83.9,0,115.9l-9.2,9.2l-9.2-9.2
  C279.3,129.6,278.8,77.7,311.1,45.4z M284.8,177.1c1.6,1.9,3.3,3.7,5.1,5.4l39.6,39.6c1.8,1.8,3.6,3.4,5.4,5.1
  c-22.8-4.7-41.6-1.2-51.6,1.5C286,218.6,289.4,199.9,284.8,177.1L284.8,177.1z M214.7,141.8l9.2-9.2l9.2,9.2
  c32,32,32.1,83.9,0,115.9l-9.2,9.2l-9.2-9.2C182.9,226,182.4,174.1,214.7,141.8L214.7,141.8z M188.4,273.5c1.6,1.9,3.3,3.7,5.1,5.4
  l39.6,39.6c1.8,1.8,3.6,3.4,5.4,5.1c-22.8-4.7-41.6-1.2-51.6,1.5C189.6,315,193,296.3,188.4,273.5L188.4,273.5z M136.6,354.1
  l-9.2,9.2l-9.2-9.2c-31.7-31.7-32.3-83.6,0-115.9l9.2-9.2l9.2,9.2C168.7,270.2,168.7,322.1,136.6,354.1z M273.8,393.7
  c-15.5,15.5-36.1,24-58,24c-9.2,0-35.4-1.4-58-24l-9.2-9.2l9.2-9.2c32-32,83.9-32.1,115.9,0l9.2,9.2L273.8,393.7z M370.2,297.3
  c-31.8,31.8-83.6,32.3-115.9,0l-9.2-9.2l9.2-9.2c32-32,83.9-32.1,115.9,0l9.2,9.2L370.2,297.3z M466.6,182.5l9.2,9.2l-9.2,9.2
  c-31.8,31.8-83.7,32.3-115.9,0c-3.3-3.3-6.4-6.4-9.2-9.2l9.2-9.2C382.7,150.5,434.5,150.5,466.6,182.5L466.6,182.5z M387.3,128.5
  h-3.8v-3.8c0-52.4,42.4-94.7,94.7-94.7h3.8v3.8C482,86.5,439.2,128.5,387.3,128.5z"/>
<path class="st1" d="M334.9,199.8c0,0,65.1,84,164.1-8C499,191.7,398.3,89,334.9,199.8z"/>
<path class="st1" d="M230.2,290c0,0,65.1,84,164.1-8C394.3,282,293.6,179.3,230.2,290z"/>
<path class="st1" d="M133.8,392.7c0,0,65.1,84,164.1-8C297.9,384.7,197.2,282,133.8,392.7z"/>
</svg>
