<?xml version="1.0" encoding="utf-8"?>
<!-- Generator: Adobe Illustrator 23.1.1, SVG Export Plug-In . SVG Version: 6.00 Build 0)  -->
<svg version="1.1" id="Capa_1" xmlns="http://www.w3.org/2000/svg" xmlns:xlink="http://www.w3.org/1999/xlink" x="0px" y="0px"
   viewBox="0 0 512 512" style="enable-background:new 0 0 512 512;" xml:space="preserve">
<style type="text/css">
  .st0{fill:#54B1EA;}
  .st1{opacity:0.5;fill:#54B1EA;}
</style>
<g>
  <g>
    <path class="st0" d="M213.8,30h219.3v42H213.8V30z M138.4,217l36.1-15l34.9-100h228l34.9,100c-1.6,0-108,0-183.1,0l34.4,30h154.9
      v250H368v29.9l65.1,0.1c6.2,0,51.6,0,60.3,0c8.3,0,15-6.7,15-15c0-17.2,0-272,0-280c0-1.5-0.3-3.3-0.8-4.9L463.1,84.5V15
      c0-8.3-6.7-15-15-15H198.8c-8.3,0-15,6.7-15,15v69.5l-44.5,127.6C138.7,213.7,138.4,215.5,138.4,217"/>
  </g>
</g>
<g>
  <path class="st0" d="M381,270.3l-108.9-99c-3.7-3.4-9.1-4.4-13.7-2.5L8.3,268.3c-5.4,2.1-8.7,7.5-8.3,13.2c0,0.3,0,0.6,0,0.8v56.4
    c0,7.3,5.9,13.2,13.2,13.2c24.8,0,44.9,20.2,44.9,44.9c0,24.8-20.2,44.9-44.9,44.9c-7.3,0-13.2,5.9-13.2,13.2v43.9
    c0,7.3,5.9,13.2,13.2,13.2h359.5c7.3,0,13.2-5.9,13.2-13.2V282.3c0-0.2,0-0.4,0-0.5c0-0.4,0.1-0.8,0.1-1.2
    C385.9,276.4,384,272.7,381,270.3z M260.5,196.3l78.1,71H82L260.5,196.3z M359.5,485.6H26.4v-18.8c33-6.2,58.1-35.3,58.1-70.1
    s-25.1-63.9-58.1-70.1v-33h333.2V485.6z"/>
  <circle class="st0" cx="305.9" cy="357.3" r="17.6"/>
  <circle class="st0" cx="134.6" cy="373.5" r="18.3"/>
  <circle class="st0" cx="264.1" cy="419.6" r="25"/>
  <circle class="st0" cx="172.4" cy="440.2" r="20.8"/>
  <circle class="st0" cx="215.9" cy="339.5" r="21.7"/>
</g>
<path class="st0" d="M138.4,217"/>
<polygon class="st1" points="82,267.4 260.5,196.3 359.5,267.4 "/>
</svg>
