<?xml version="1.0" encoding="utf-8"?>
<!-- Generator: Adobe Illustrator 23.1.1, SVG Export Plug-In . SVG Version: 6.00 Build 0)  -->
<svg version="1.1" id="Ebene_1" xmlns="http://www.w3.org/2000/svg" xmlns:xlink="http://www.w3.org/1999/xlink" x="0px" y="0px"
   viewBox="0 0 512 512" style="enable-background:new 0 0 512 512;" xml:space="preserve">
<style type="text/css">
  .st0{fill:#908FB2;}
  .st1{opacity:0.5;fill:#908FB2;}
</style>
<path class="st0" d="M384,126.2c-41.2-10.4-84.9-0.4-108.6,24.8c-1.2,1.3-2.6,2.5-4.1,3.5c5.3-53,50.1-94.5,104.5-94.5
  c8.3,0,15-6.7,15-15s-6.7-15-15-15c-43.7,0-82.6,20.9-107.3,53.2C258.4,35.7,216.2,0,165.8,0h-60c-8.3,0-15,6.7-15,15
  c0,57.9,47.1,105,105,105h52.7c-3.9,11.1-6.5,22.9-7.4,35.1c-1.8-1.2-3.5-2.5-5-4.1c-25-26.5-65.7-36.9-106.3-27
  c-43.5,10.5-76.8,42.2-89.1,84.8C29.9,246.4,28,292.4,35.5,335c8.1,46,26.1,89.5,50.7,122.3c26.4,35.3,57.8,54.7,88.6,54.7
  c12.3,0,24.1-3,35.1-9c14.2-7.7,30.1-11.8,45.9-11.8c15.8,0,31.7,4.1,45.9,11.7c11,6,22.8,9,35.1,9c30.7,0,62.2-19.4,88.6-54.7
  C450,424.5,468,381,476.1,335c7.2-41.1,5.7-85.7-4.2-122.5C460.1,168.8,428.1,137.3,384,126.2z M195.8,90c-36.2,0-66.5-25.8-73.5-60
  h43.5c36.2,0,66.5,25.8,73.5,60H195.8z M446.5,329.8c-7.3,41.5-23.4,80.4-45.2,109.6c-20.3,27.1-43.8,42.7-64.6,42.7
  c-7.3,0-14.3-1.8-20.8-5.4c-18.6-10.1-39.4-15.4-60.2-15.4c-20.8,0-41.6,5.3-60.1,15.4c-6.6,3.6-13.6,5.4-20.9,5.4
  c-20.8,0-44.3-15.6-64.6-42.7c-21.8-29.2-37.8-68.1-45.2-109.6c-6.7-37.7-4.9-79.8,4.6-112.7c9.4-32.6,34-55.9,67.4-64
  c29.6-7.2,60,0.1,77.4,18.5c10.7,11.3,25.8,17.8,41.4,17.8h0h0c15.6,0,30.7-6.5,41.4-17.8c16.3-17.3,49-23.9,79.5-16.3
  c19.5,4.9,54.1,19.9,66.2,65C451.6,252.5,452.9,293.4,446.5,329.8z"/>
<path class="st1" d="M246,181.7c0,0,44,46-56,46c-65.1,0-120.4,176-22,205s12.5,65,12.5,65S47,478.7,47,287.7c0,0-8-211,176-127
  L246,181.7z"/>
</svg>
