<svg width="164" height="146" viewBox="0 0 164 146" fill="none" xmlns="http://www.w3.org/2000/svg">
<path d="M64.7001 58.7C74.0001 54.7 84.0001 53.5 94.0001 52.7C98.1001 52.4 102.3 51.9 106.3 51C114.2 49.2 120.8 45.1 125.8 38.7C126.7 37.5 127.2 37.6 128 38.8C131.5 43.6 134.4 48.6 134.4 54.8C134.4 61.6 130.7 66.3 125 69.4C115.7 74.5 105.7 74.4 95.7001 72.3C88.6001 70.9 81.5001 69.5 74.3001 69.5C66.2001 69.5 58.3001 70.9 50.6001 73.4C47.6001 74.4 44.6001 75.4 41.6001 76.3C46.7001 70.7 49.8001 64.1 51.7001 56.9C53.1001 51.6 54.3001 46.3 55.8001 41.1C59.7001 27.6 68.9001 20 82.7001 18.3C98.4001 16.4 111.7 21.7 122.9 32.8C124 33.8 123.5 34.3 122.8 35.1C115.7 43.7 106.4 48.1 95.4001 49.5C87.6001 50.4 79.8001 51.3 72.4001 54.2C69.6001 55.3 66.9001 56.6 64.4001 58.2C64.2001 58.4 63.9001 58.5 63.7001 58.7C63.4001 58.8 63.1001 58.9 62.9001 59.1C63.2001 59.3 64.0001 59 64.0001 59C64.1001 59 64.4001 58.9 64.7001 58.7Z" fill="#C0AC5D"/>
<path d="M134.3 36.3C134.3 34 135.2 31.3 136.6 28.8C140.1 22.7 144.9 18.2 152 16.7C158.8 15.3 163.7 19.8 163.1 26.7C162.3 35.6 153.6 44.8 144.7 46C138.6 46.8 134.3 43.1 134.3 36.3Z" fill="#C0AC5D"/>
<path d="M123.3 19.9C123.5 14.5 129.5 8.09998 135 7.69998C138.1 7.39998 140.1 9.39998 140 12.5C139.8 17.9 133.9 24.3 128.5 24.9C125.3 25.3 123.2 23.3 123.3 19.9Z" fill="#C0AC5D"/>
<path d="M108.9 11.8C109 6.89998 113.9 1.69998 118.8 1.39998C121.8 1.19998 124.1 3.19998 124.2 6.19998C124.4 11.2 119.2 16.9 114.2 17.1C110.9 17.3 108.8 15.2 108.9 11.8Z" fill="#C0AC5D"/>
<path d="M102.1 0C104.9 0 106.7 1.9 106.7 4.7C106.7 9.1 102.2 14 97.8001 14.5C94.8001 14.8 92.7001 13.1 92.5001 10.2C92.1001 5.4 97.2001 0 102.1 0Z" fill="#C0AC5D"/>
<path d="M88.9001 5.3C88.9001 8.9 85.2001 12.9 81.6001 13.3C79.0001 13.6 77.2001 11.9 77.3001 9.3C77.4001 5.6 81.2001 1.6 84.9001 1.4C87.2001 1.2 88.9001 2.8 88.9001 5.3Z" fill="#C0AC5D"/>
<path d="M66 72.6C59.8 73.9 53.8 75.4 48 78C46.2 78.8 38.7 81.7 37 82.9C36 83.4 28.4 87.2 25.8 89C25.7 89.1 25.3 89.3 25.2 89.4C25.2 89.4 16.3 95.4 13 98.2C7.00002 103.4 2.90002 109.9 0.800023 117.6C-1.49998 126.1 1.50002 135.4 8.50002 140.6C9.30002 141.2 9.70002 141.2 10.5 140.6C13.4 138.4 16.1 136.2 18.7 133.7C24.6 127.8 28 120.5 31.1 112.9C33.8 106.3 36.7 99.8 41.5 94.3C41.6 94.1 42.8 92.9 42.8 92.9C42.8 92.9 41.9 94.4 41.8 94.6C37.8 101.5 34.9 108.8 32.1 116.2C28.4 126 22.8 134.4 14.1 140.6C13.3 141.1 12.6 141.7 11.6 142.4C15.1 144.1 18.4 144.9 22 145C32.8 145.2 40.5 139.7 46.6 131.3C50.5 125.9 52.4 119.7 53.1 113.1C54.1 103.8 54.7 94.4 57.8 85.4C57.8 85.2 59.4 81.6 60.5 79.9C61.6 78.2 66.2 74.1 69.6 72.4C68.5 72.2 67.1 72.4 66 72.6Z" fill="#C0AC5D"/>
<path d="M25.9001 89.1C25.8001 89.2 25.7001 89.3 25.6001 89.4C25.7001 89.3 25.8001 89.2 25.9001 89.1Z" fill="#C0AC5D"/>
</svg>
