<svg width="36" height="59" viewBox="0 0 36 59" fill="none" xmlns="http://www.w3.org/2000/svg">
<path d="M17.8759 0C7.94483 0 0 7.86667 0 17.7C0 20.4042 1.24138 23.8458 1.24138 23.8458C5.95862 35.8917 17.3793 58.2625 17.3793 58.2625C17.6276 58.7542 17.8759 59 17.8759 59C18.1241 59 18.3724 58.7542 18.3724 58.5083C18.3724 58.5083 29.7931 36.1375 34.5103 24.0917C34.5103 24.0917 35.7517 20.65 35.7517 17.9458C36 7.86667 27.8069 0 17.8759 0ZM17.8759 25.8125C13.4069 25.8125 9.68276 22.125 9.68276 17.7C9.68276 13.275 13.4069 9.5875 17.8759 9.5875C22.3448 9.5875 26.069 13.275 26.069 17.7C26.069 22.125 22.5931 25.8125 17.8759 25.8125Z" fill="#627655"/>
</svg>
