<?xml version="1.0" encoding="utf-8"?>
<!-- Generator: Adobe Illustrator 23.1.1, SVG Export Plug-In . SVG Version: 6.00 Build 0)  -->
<svg version="1.1" id="Capa_1" xmlns="http://www.w3.org/2000/svg" xmlns:xlink="http://www.w3.org/1999/xlink" x="0px" y="0px"
   viewBox="0 0 512 512" style="enable-background:new 0 0 512 512;" xml:space="preserve">
<style type="text/css">
  .st0{fill:#C77B66;}
  .st1{opacity:0.5;fill:#C77B66;}
</style>
<path class="st0" d="M140,253.1c-6.3,6.3-6.3,16.6,0,22.9l9,9l-39,39c-21.5-14.3-50.6-11.5-69,7.8c-20.1,21.1-19.4,55.3,1.6,76.4
  c9.6,9.6,21.3,15.5,34.3,17.4c2,12.9,8,24.8,17.8,34.6c21,21,55.3,21.8,76.4,1.6c19.2-18.4,22.1-47.4,7.8-69l39-39l9,9
  c6.3,6.3,16.6,6.3,22.9,0c41.4-41.4,113.3-27.4,176-90.2c67.9-67.9,65.3-152,10.8-206.5C382.4,12.1,298.2,8.7,229.9,76.9
  C167.2,139.7,181.3,211.8,140,253.1z M150,408.5c7.8,8.8,7.2,21.7-1.4,29.9c-8.3,7.9-22.5,7.4-31-1.1c-7-7-10-15.6-8.6-25.4
  c1.4-10.6-7.6-19.6-18.1-18.3c-6.9,0.9-16.8,0.1-25.3-8.3c-8.5-8.5-9-22.7-1.1-31c8.2-8.6,21-9.2,29.8-1.4
  c9.8,8.6,24.6,8.1,33.8-1.1l43.8-43.8l23,23L151,374.8C141.9,384,141.4,398.8,150,408.5L150,408.5z M413.6,89.3
  c44.8,44.8,40.5,109.3-10.8,160.6c-51.8,51.8-114.4,42-163.8,79.5l-65.5-65.5c37.5-49.4,27.5-112.2,79.3-164
  C304.1,48.6,368.7,44.4,413.6,89.3L413.6,89.3z"/>
<path class="st1" d="M449,123.7c0,0-132.4-83-197.3,42c-49.8,96-89.2,103.6-89.2,103.6L153,256c0,0,53-65.3,73-143.3
  S413.5,13.7,449,123.7z"/>
</svg>
