<svg xmlns="http://www.w3.org/2000/svg" xmlns:xlink="http://www.w3.org/1999/xlink" version="1.1" x="0px" y="0px" viewBox="0 0 24 30" style="enable-background:new 0 0 24 24;" xml:space="preserve"><path d="M20.852,20.062l-4.608-4.608c1.141-1.323,1.834-3.043,1.834-4.923c0-4.162-3.386-7.547-7.547-7.547  c-4.161,0-7.547,3.386-7.547,7.547s3.386,7.547,7.547,7.547c1.88,0,3.6-0.693,4.923-1.834l4.608,4.608  c0.109,0.109,0.252,0.164,0.395,0.164c0.143,0,0.286-0.055,0.395-0.164C21.071,20.634,21.071,20.28,20.852,20.062z M10.531,16.96  c-3.545,0-6.429-2.884-6.429-6.429s2.884-6.429,6.429-6.429c3.545,0,6.429,2.884,6.429,6.429S14.076,16.96,10.531,16.96z"/><text x="0" y="39" fill="#000000" font-size="5px" font-weight="bold" font-family="'Helvetica Neue', Helvetica, Arial-Unicode, Arial, Sans-serif">Created by AlePio</text><text x="0" y="44" fill="#000000" font-size="5px" font-weight="bold" font-family="'Helvetica Neue', Helvetica, Arial-Unicode, Arial, Sans-serif">from the Noun Project</text></svg>