<svg width="15" height="24" viewBox="0 0 15 24" fill="none" xmlns="http://www.w3.org/2000/svg">
<g clip-path="url(#clip0)">
<path d="M7.2 0C3.2 0 0 3.2 0 7.2C0 8.3 0.5 9.7 0.5 9.7C2.4 14.6 7 23.7 7 23.7C7.1 23.9 7.2 24 7.2 24C7.3 24 7.4 23.9 7.4 23.8C7.4 23.8 12 14.7 13.9 9.8C13.9 9.8 14.4 8.4 14.4 7.3C14.5 3.2 11.2 0 7.2 0ZM7.2 10.5C5.4 10.5 3.9 9 3.9 7.2C3.9 5.4 5.4 3.9 7.2 3.9C9 3.9 10.5 5.4 10.5 7.2C10.5 9 9.1 10.5 7.2 10.5Z" fill="#627655"/>
</g>
<defs>
<clipPath id="clip0">
<rect width="14.5" height="24" fill="white"/>
</clipPath>
</defs>
</svg>
