<svg width="52" height="63" viewBox="0 0 52 63" fill="none" xmlns="http://www.w3.org/2000/svg">
<path d="M42.0159 37.9008L32.916 30.2904C32.396 30.8952 31.824 31.4496 31.2 31.9536L39.0519 40.7736C39.1039 40.824 39.2079 40.9248 39.2599 40.9752C40.1439 41.6808 41.4439 41.6304 42.2239 40.7736C43.0039 39.9168 42.8999 38.6064 42.0159 37.9008Z" fill="#FEFFFD"/>
<path d="M34.8401 21.168C34.8401 14.2128 29.0161 8.56799 21.8401 8.56799C14.6641 8.56799 8.84009 14.2128 8.84009 21.168C8.84009 28.1232 14.6641 33.768 21.8401 33.768C25.0121 33.768 27.9761 32.6592 30.2121 30.7944C30.7841 30.3408 31.3041 29.8368 31.7721 29.2824C33.6961 27.1152 34.8401 24.2424 34.8401 21.168ZM21.8401 31.248C16.1201 31.248 11.4401 26.712 11.4401 21.168C11.4401 15.624 16.1201 11.088 21.8401 11.088C27.5601 11.088 32.2401 15.624 32.2401 21.168C32.2401 26.712 27.5601 31.248 21.8401 31.248Z" fill="#FEFFFD"/>
</svg>
