<svg width="40" height="49" viewBox="0 0 40 49" fill="none" xmlns="http://www.w3.org/2000/svg">
<path d="M27.3424 24.5972C28.5459 23.3559 29.3835 21.8181 29.7661 20.1474C30.1487 18.4766 30.0619 16.7355 29.5151 15.1093C30.7827 14.6349 31.6667 13.982 31.6667 13.0667C31.6667 12.1415 30.7194 11.4907 28.3276 10.8113C28.2405 5.96628 27.0239 1.63333 20 1.63333C12.9761 1.63333 11.7595 5.96628 11.6724 10.8113C9.28058 11.4907 8.33333 12.1415 8.33333 13.0667C8.33333 13.982 9.21733 14.6349 10.4849 15.1093C9.93808 16.7355 9.85134 18.4766 10.2339 20.1474C10.6165 21.8181 11.4541 23.3559 12.6576 24.5972C7.906 25.0658 5 27.74 5 31.85V36.75C4.99993 36.8573 5.02144 36.9635 5.0633 37.0626C5.10516 37.1617 5.16654 37.2518 5.24393 37.3276C5.32133 37.4035 5.41322 37.4636 5.51435 37.5046C5.61549 37.5456 5.72388 37.5667 5.83333 37.5667H34.1667C34.2761 37.5667 34.3845 37.5456 34.4856 37.5046C34.5868 37.4636 34.6787 37.4035 34.7561 37.3276C34.8335 37.2518 34.8948 37.1617 34.9367 37.0626C34.9786 36.9635 35.0001 36.8573 35 36.75V31.85C35 27.74 32.094 25.0658 27.3424 24.5972ZM15 26.4408C16.5173 27.3091 18.2429 27.7667 20 27.7667C21.7571 27.7667 23.4827 27.3091 25 26.4408V31.0333H15V26.4408ZM14.1667 32.6667H25.8333C25.9428 32.6667 26.0512 32.6456 26.1523 32.6046C26.2534 32.5636 26.3453 32.5035 26.4227 32.4276C26.5001 32.3518 26.5615 32.2617 26.6034 32.1626C26.6452 32.0635 26.6667 31.9573 26.6667 31.85V26.1619C27.2269 26.1987 27.7839 26.274 28.3333 26.3873V35.9333H11.6667V26.3874C12.2161 26.274 12.7731 26.1987 13.3333 26.162V31.85C13.3333 31.9573 13.3548 32.0635 13.3966 32.1626C13.4385 32.2617 13.4999 32.3518 13.5773 32.4276C13.6547 32.5035 13.7466 32.5636 13.8477 32.6046C13.9488 32.6456 14.0572 32.6667 14.1667 32.6667ZM20 3.26666C25.3107 3.26666 26.55 5.98772 26.6563 10.7142C22.2437 11.3655 17.7564 11.3655 13.3438 10.7142C13.45 5.98772 14.6893 3.26666 20 3.26666ZM12.5686 12.2638C15.0254 12.6573 17.5106 12.8565 20 12.8593C22.4896 12.8565 24.9749 12.6573 27.432 12.2638C28.2799 12.4518 29.0991 12.7474 29.869 13.1432C29.069 13.7709 25.5452 14.7 20 14.7C14.3229 14.7 10.7658 13.727 10.0928 13.1672C10.8712 12.7548 11.7045 12.4508 12.5686 12.2638ZM12.0736 15.5763C15.2083 16.2951 19.2814 16.3333 20 16.3333C20.7186 16.3333 24.7917 16.2951 27.9264 15.5763C28.1839 16.3485 28.3211 17.1544 28.3333 17.9667C28.3333 20.1326 27.4554 22.2098 25.8926 23.7414C24.3298 25.2729 22.2101 26.1333 20 26.1333C17.7899 26.1333 15.6702 25.2729 14.1074 23.7414C12.5446 22.2098 11.6667 20.1326 11.6667 17.9667C11.6789 17.1544 11.8161 16.3485 12.0736 15.5763ZM6.66667 31.85C6.66667 29.0696 8.24583 27.6404 10 26.903V35.9333H6.66667V31.85ZM33.3333 35.9333H30V26.903C31.7542 27.6404 33.3333 29.0696 33.3333 31.85V35.9333Z" fill="#627655"/>
</svg>
