<?xml version="1.0" encoding="utf-8"?>
<!-- Generator: Adobe Illustrator 23.1.1, SVG Export Plug-In . SVG Version: 6.00 Build 0)  -->
<svg version="1.1" id="Layer_1" xmlns="http://www.w3.org/2000/svg" xmlns:xlink="http://www.w3.org/1999/xlink" x="0px" y="0px"
   viewBox="0 0 512 512" style="enable-background:new 0 0 512 512;" xml:space="preserve">
<style type="text/css">
  .st0{fill:#88A863;}
  .st1{opacity:0.5;fill:#88A863;}
</style>
<g>
  <g>
    <path class="st0" d="M495.3,95.2H441l42.4-43c6.5-6.5,6.5-17.1,0-23.7c-6.5-6.5-17.1-6.5-23.6,0l-43,42.4V16.7
      c0-9.2-6.9-16.7-16.2-16.7c-9.2,0-17.2,7.5-17.2,16.7v59.5c-17.8-11.6-36.6-19.4-55.9-22.7c-32.3-5.4-60.9,2.5-80.6,22.2
      c-17.3,17.3-88.9,107.8-149.7,198.6C67.8,318.4,11.3,406,1.5,457.6c-3.7,19.6-0.7,34.4,8.9,44c11.3,11.4,28.3,11.9,44,8.9
      c51.7-9.8,139.5-66.5,183.1-95.7c41.1-27.5,164.3-115.4,198.6-149.7c19.7-19.7,27.6-48.4,22.2-80.6c-3.2-19.3-11-39.2-22.7-57
      h59.5c9.2,0,16.7-6.8,16.7-16.1S504.5,95.2,495.3,95.2z M412.5,241.4c-8.8,8.8-38.8,33.3-78.5,63.4l-27.9-27.9
      c-6.5-6.5-17.1-6.5-23.6,0s-6.5,17.1,0,23.6l24.5,24.5c-26,19.2-54.6,39.5-83.4,58.9c-9.9,6.7-19.3,12.9-28.2,18.7l-31.1-31.1
      c-6.5-6.5-17.1-6.5-23.6,0c-6.5,6.5-6.5,17.1,0,23.6l25.7,25.7c-106.6,65.4-130,57.9-132.1,57c-1.1-2.4-11-33.5,94-189.4
      c6.4-9.5,12.9-18.9,19.4-28.3l40.3,40.3c3.3,3.3,7.5,4.9,11.8,4.9s8.6-1.6,11.8-4.9c6.5-6.5,6.5-17.1,0-23.6l-44.4-44.4
      c21.7-30.3,42.9-58.5,60.7-81.2l31,31c3.3,3.3,7.5,4.9,11.8,4.9s8.6-1.6,11.8-4.9c6.5-6.5,6.5-17.1,0-23.6l-33.7-33.7
      c10.1-12.4,17.7-21.3,21.9-25.4c11.9-11.9,30.2-16.4,51.5-12.9c48.4,8.1,95.2,54.9,103.3,103.3
      C428.9,211.3,424.4,229.5,412.5,241.4z"/>
  </g>
</g>
<path class="st1" d="M417.7,164.7c0,0-76.7-54-107.7-23c-38,38-269,280-269,280s77-201.6,222-336.3C263,85.4,382.5,42.8,417.7,164.7
  z"/>
</svg>
